#!OML:ASF X:\für Bonn\!DataBase\2005_08_10_Bjorn_Final\c3d\bjorn.ASF
:FULLY-SPECIFIED
:DEGREES
106
root 17.6477 17.9509 0.948793 1100.21 -77.634 -340.664
lowerback 48.6404 3.25475 9.66194
upperback 22.96 4.11674 -2.70126
thorax 6.28624 2.62426 -8.74966
lowerneck 10.0722 -5.76379 9.13891
upperneck -17.2571 -6.98298 -2.65285
head -7.38629 -3.8153 -1.67487
rclavicle -6.99722e-014 -1.27222e-014
rhumerus 77.0198 -17.1548 -92.2375
rradius 9.93731
rwrist 10.5045
rhand -15.8336 13.4051
rfingers 7.12502
rthumb 10.3607 -16.3196
lclavicle -6.99722e-014 -1.27222e-014
lhumerus -4.08212 -22.9945 78.232
lradius 48.8508
lwrist 4.73751
lhand -24.5245 -8.53199
lfingers 7.12502
lthumb 1.97076 21.4386
rfemur -78.4103 -11.242 15.9351
rtibia 53.3289
rfoot -7.31998 12.7974
rtoes -4.49618
lfemur -76.3355 6.36164 -28.871
ltibia 53.7927
lfoot -8.8037 -9.39992
ltoes -3.04595
107
root 17.6148 17.9051 0.924568 1099.39 -77.2169 -339.544
lowerback 48.7858 3.07771 9.79082
upperback 23.0205 3.98242 -2.70537
thorax 6.32773 2.58929 -8.77152
lowerneck 9.63412 -5.74579 9.21765
upperneck -17.1794 -6.9874 -2.63146
head -7.28658 -3.83063 -1.69272
rclavicle 4.45278e-014 -1.74931e-014
rhumerus 77.4009 -16.8226 -91.8362
rradius 9.7982
rwrist 9.72037
rhand -16.2853 13.3159
rfingers 7.12502
rthumb 9.92492 -16.4301
lclavicle 4.45278e-014 -1.74931e-014
lhumerus -4.02096 -22.651 78.3646
lradius 48.5403
lwrist 4.78104
lhand -24.6196 -8.60443
lfingers 7.12502
lthumb 1.87893 21.367
rfemur -79.022 -11.6043 15.8301
rtibia 54.1447
rfoot -7.67169 12.7113
rtoes -4.30951
lfemur -76.8177 5.84916 -28.8711
ltibia 54.3728
lfoot -9.11931 -9.32607
ltoes -3.36275
108
root 17.5823 17.8634 0.90034 1098.69 -76.7857 -338.563
lowerback 48.9149 2.89883 9.90887
upperback 23.0415 3.8516 -2.7044
thorax 6.32438 2.55057 -8.7839
lowerneck 9.3677 -5.72655 9.32701
upperneck -17.1467 -6.96722 -2.61394
head -7.23185 -3.83316 -1.71412
rclavicle 7.95139e-014 4.29375e-014
rhumerus 77.5848 -16.5209 -91.4074
rradius 9.80294
rwrist 8.96861
rhand -16.6939 13.2331
rfingers 7.12502
rthumb 9.53071 -16.5313
lclavicle 7.95139e-014 4.29375e-014
lhumerus -4.07094 -22.2751 78.5538
lradius 48.2417
lwrist 4.77199
lhand -24.7389 -8.70439
lfingers 7.12502
lthumb 1.7637 21.2681
rfemur -79.6141 -11.9641 15.7445
rtibia 54.9553
rfoot -8.101 12.623
rtoes -4.30521
lfemur -77.2668 5.31428 -28.8183
ltibia 54.9157
lfoot -9.38483 -9.22883
ltoes -3.48797
109
root 17.5501 17.8233 0.875778 1098.03 -76.3627 -337.605
lowerback 49.02 2.71777 10.0588
upperback 23.0359 3.73612 -2.73664
thorax 6.30081 2.52636 -8.85242
lowerneck 9.20677 -5.73279 9.53186
upperneck -17.1348 -6.96134 -2.63134
head -7.20862 -3.84392 -1.75731
rclavicle 1.27222e-014 3.18055e-015
rhumerus 77.7154 -16.2857 -91.0064
rradius 9.76029
rwrist 8.25001
rhand -17.1345 13.2138
rfingers 7.12502
rthumb 9.10557 -16.5696
lclavicle 1.27222e-014 3.18055e-015
lhumerus -4.16294 -22.0315 78.7051
lradius 47.987
lwrist 4.87837
lhand -24.8876 -8.87345
lfingers 7.12502
lthumb 1.62008 21.1001
rfemur -80.2147 -12.3262 15.663
rtibia 55.7446
rfoot -8.54723 12.5278
rtoes -4.58323
lfemur -77.6924 4.73513 -28.717
ltibia 55.4118
lfoot -9.66925 -9.04279
ltoes -3.78015
110
root 17.5182 17.7868 0.850364 1097.4 -75.9422 -336.707
lowerback 49.1589 2.54258 10.1938
upperback 23.0232 3.62445 -2.76403
thorax 6.26322 2.50032 -8.90916
lowerneck 9.08464 -5.73103 9.74319
upperneck -17.1694 -6.9432 -2.66098
head -7.20723 -3.84871 -1.80523
rclavicle -2.54444e-014 1.17681e-013
rhumerus 77.8225 -16.0483 -90.6072
rradius 9.6995
rwrist 7.58631
rhand -17.6468 13.2865
rfingers 7.12502
rthumb 8.6112 -16.5179
lclavicle -2.54444e-014 1.17681e-013
lhumerus -4.26 -21.7852 78.8783
lradius 47.74
lwrist 4.93521
lhand -25.0755 -9.03451
lfingers 7.12502
lthumb 1.43868 20.9404
rfemur -80.7389 -12.6717 15.5739
rtibia 56.4964
rfoot -9.0373 12.404
rtoes -5.02279
lfemur -78.0631 4.14599 -28.5804
ltibia 55.8752
lfoot -9.93861 -8.82698
ltoes -4.10848
111
root 17.4853 17.7521 0.825152 1096.86 -75.5214 -335.942
lowerback 49.3335 2.36462 10.3117
upperback 22.9971 3.50753 -2.76943
thorax 6.20183 2.46392 -8.93152
lowerneck 8.92666 -5.70955 9.84627
upperneck -17.1244 -6.91495 -2.67316
head -7.16773 -3.8417 -1.8332
rclavicle -1.17681e-013 1.90833e-014
rhumerus 77.9014 -15.7503 -90.1674
rradius 9.61907
rwrist 6.96319
rhand -18.1467 13.3734
rfingers 7.12502
rthumb 8.12872 -16.4502
lclavicle -1.17681e-013 1.90833e-014
lhumerus -4.39042 -21.5377 79.0891
lradius 47.5403
lwrist 4.99051
lhand -25.3041 -9.15061
lfingers 7.12502
lthumb 1.21782 20.8257
rfemur -81.1798 -12.9976 15.4825
rtibia 57.2033
rfoot -9.4633 12.2903
rtoes -4.87615
lfemur -78.3683 3.56397 -28.4036
ltibia 56.3056
lfoot -10.181 -8.59188
ltoes -4.31869
112
root 17.4517 17.7174 0.799082 1096.32 -75.0942 -335.163
lowerback 49.5098 2.18606 10.4202
upperback 22.95 3.39234 -2.79117
thorax 6.11557 2.42823 -8.96774
lowerneck 8.78581 -5.69703 10.0001
upperneck -17.1036 -6.89146 -2.69421
head -7.14187 -3.83974 -1.87081
rclavicle -4.13472e-014 -7.95139e-015
rhumerus 78.001 -15.4433 -89.7542
rradius 9.44265
rwrist 6.40956
rhand -18.7015 13.5431
rfingers 7.12502
rthumb 7.59332 -16.3006
lclavicle -4.13472e-014 -7.95139e-015
lhumerus -4.52062 -21.2803 79.2994
lradius 47.3432
lwrist 4.98542
lhand -25.5252 -9.29385
lfingers 7.12502
lthumb 1.00436 20.6835
rfemur -81.6342 -13.3412 15.4
rtibia 57.887
rfoot -9.92269 12.1732
rtoes -5.23792
lfemur -78.6908 2.96011 -28.2193
ltibia 56.7207
lfoot -10.443 -8.33806
ltoes -4.49857
113
root 17.4186 17.6847 0.773124 1095.86 -74.6775 -334.502
lowerback 49.7486 2.00891 10.5294
upperback 22.8672 3.28952 -2.79374
thorax 5.98187 2.39123 -8.98563
lowerneck 8.72616 -5.69037 10.083
upperneck -17.0978 -6.87462 -2.69483
head -7.13197 -3.83722 -1.88753
rclavicle -6.04305e-014 -2.8625e-014
rhumerus 77.9679 -15.193 -89.2801
rradius 9.41534
rwrist 5.83398
rhand -19.1398 13.7348
rfingers 7.12502
rthumb 7.17024 -16.1237
lclavicle -6.04305e-014 -2.8625e-014
lhumerus -4.69252 -21.0616 79.5607
lradius 47.1516
lwrist 4.87729
lhand -25.7858 -9.40127
lfingers 7.12502
lthumb 0.752619 20.5771
rfemur -82.0251 -13.6586 15.3158
rtibia 58.5331
rfoot -10.3314 12.0957
rtoes -5.22679
lfemur -78.9566 2.36775 -27.9949
ltibia 57.1051
lfoot -10.6905 -8.07219
ltoes -4.87647
114
root 17.3854 17.653 0.746967 1095.43 -74.2634 -333.903
lowerback 50.0115 1.82478 10.6503
upperback 22.8046 3.17993 -2.81089
thorax 5.87026 2.3556 -9.02215
lowerneck 8.59891 -5.68143 10.2272
upperneck -17.0941 -6.85944 -2.72588
head -7.1145 -3.83822 -1.92545
rclavicle -8.5875e-014 -1.43125e-014
rhumerus 78.0312 -14.9014 -88.8475
rradius 9.25539
rwrist 5.36359
rhand -19.6793 13.9749
rfingers 7.12502
rthumb 6.64946 -15.9007
lclavicle -8.5875e-014 -1.43125e-014
lhumerus -4.81346 -20.8744 79.7796
lradius 47.0022
lwrist 4.76833
lhand -26.079 -9.47607
lfingers 7.12502
lthumb 0.469427 20.5032
rfemur -82.3741 -13.9829 15.2638
rtibia 59.1527
rfoot -10.7616 12.0358
rtoes -5.45001
lfemur -79.1731 1.78947 -27.7556
ltibia 57.4635
lfoot -10.9394 -7.80778
ltoes -5.01558
115
root 17.3521 17.6249 0.721621 1095.09 -73.8729 -333.395
lowerback 50.3126 1.64338 10.7744
upperback 22.702 3.08477 -2.83858
thorax 5.71136 2.32424 -9.07532
lowerneck 8.54107 -5.68339 10.3214
upperneck -17.1225 -6.84873 -2.69929
head -7.11611 -3.84265 -1.93406
rclavicle 3.81667e-014 -5.88403e-014
rhumerus 78.0173 -14.6433 -88.4048
rradius 9.13736
rwrist 4.88996
rhand -20.1843 14.2234
rfingers 7.12502
rthumb 6.16188 -15.667
lclavicle 3.81667e-014 -5.88403e-014
lhumerus -4.9901 -20.6847 80.0202
lradius 46.8753
lwrist 4.58088
lhand -26.3225 -9.58761
lfingers 7.12502
lthumb 0.234273 20.392
rfemur -82.6893 -14.2791 15.215
rtibia 59.7216
rfoot -11.1061 12.0147
rtoes -5.19499
lfemur -79.3627 1.20035 -27.4634
ltibia 57.7782
lfoot -11.1788 -7.48671
ltoes -5.23864
116
root 17.319 17.6011 0.695191 1094.74 -73.473 -332.925
lowerback 50.6735 1.45676 10.8766
upperback 22.588 2.98215 -2.83953
thorax 5.52934 2.28085 -9.08485
lowerneck 8.46897 -5.68384 10.3559
upperneck -17.1414 -6.85216 -2.69438
head -7.11118 -3.8487 -1.93934
rclavicle 6.36111e-014 1.90833e-014
rhumerus 78.0133 -14.3301 -87.924
rradius 8.97571
rwrist 4.4055
rhand -20.7119 14.578
rfingers 7.12502
rthumb 5.65253 -15.3266
lclavicle 6.36111e-014 1.90833e-014
lhumerus -5.17515 -20.4595 80.3137
lradius 46.7467
lwrist 4.35544
lhand -26.5449 -9.77865
lfingers 7.12502
lthumb 0.0194816 20.2011
rfemur -82.9246 -14.5569 15.1413
rtibia 60.2432
rfoot -11.4562 11.9845
rtoes -4.9757
lfemur -79.4956 0.64415 -27.1922
ltibia 58.0501
lfoot -11.3833 -7.2139
ltoes -5.39289
117
root 17.2861 17.5791 0.669524 1094.51 -73.0881 -332.586
lowerback 51.0526 1.2589 11.0435
upperback 22.4701 2.89431 -2.87248
thorax 5.35282 2.25554 -9.16315
lowerneck 8.39355 -5.69904 10.4463
upperneck -17.1582 -6.85874 -2.64743
head -7.10641 -3.86296 -1.93955
rclavicle -4.45278e-014 1.90833e-014
rhumerus 78.0159 -14.0793 -87.4836
rradius 8.80446
rwrist 3.96497
rhand -21.2022 14.8444
rfingers 7.12502
rthumb 5.17911 -15.0723
lclavicle -4.45278e-014 1.90833e-014
lhumerus -5.31689 -20.3027 80.549
lradius 46.6201
lwrist 4.04118
lhand -26.7459 -10.0145
lfingers 7.12502
lthumb -0.174708 19.9651
rfemur -83.1371 -14.826 15.1241
rtibia 60.7174
rfoot -11.7559 11.9581
rtoes -4.65785
lfemur -79.608 0.20161 -27.0001
ltibia 58.2874
lfoot -11.5813 -7.0384
ltoes -5.76154
118
root 17.2537 17.5604 0.644393 1094.3 -72.718 -332.284
lowerback 51.4711 1.06959 11.1779
upperback 22.3404 2.80874 -2.88516
thorax 5.15684 2.22273 -9.20338
lowerneck 8.32832 -5.70917 10.4762
upperneck -17.1935 -6.86775 -2.6
head -7.107 -3.87528 -1.92935
rclavicle -3.49861e-014 9.54166e-015
rhumerus 78.0238 -13.7868 -87.0074
rradius 8.59663
rwrist 3.53157
rhand -21.5619 15.0654
rfingers 7.12502
rthumb 4.83177 -14.8595
lclavicle -3.49861e-014 9.54166e-015
lhumerus -5.48617 -20.14 80.8209
lradius 46.5294
lwrist 3.75331
lhand -26.9408 -10.2182
lfingers 7.12502
lthumb -0.362959 19.7613
rfemur -83.2928 -15.072 15.0938
rtibia 61.1462
rfoot -12.0503 11.9165
rtoes -4.3905
lfemur -79.6848 -0.240091 -26.7793
ltibia 58.4832
lfoot -11.7476 -6.85205
ltoes -5.98088
